<?xml version="1.0"?>
<svg width="360" height="360" xmlns="http://www.w3.org/2000/svg" xmlns:svg="http://www.w3.org/2000/svg" version="1.1">
 <!-- Created with SVG-edit - https://github.com/SVG-Edit/svgedit-->
 <g class="layer">
  <title>Layer 1</title>
  <g fill="none" id="svg_62" stroke-width="2">
   <path d="m119.88,33.91q-2.28,12.22 6.51,21.16" id="svg_63" stroke="#695438"/>
   <path d="m126.39,55.07q4.37,3.46 10.33,6.11" id="svg_64" stroke="#52362a"/>
   <path d="m136.72,61.18q-8.28,10.71 -12.6,22.39q-0.18,0.47 0.26,0.72l3.7,2.11" id="svg_65" stroke="#808e86"/>
   <path d="m128.08,86.4q7.59,5.86 9.79,13.56q4.81,16.86 -9.69,28.13a1.53,1.5 81.4 0 0 -0.5,0.69q-0.24,0.69 -0.13,1.51c0.91,6.45 -2.62,12.89 -7.69,16.92a0.79,0.79 0 0 0 0.24,1.36c8.71,2.92 15.41,10.04 18.42,18.6q5.7,16.16 -3.53,31.05q-0.9,1.46 -3.53,3.94q-3.48,3.27 -3.4,6.76" id="svg_66" stroke="#695438"/>
   <path d="m128.06,208.92q-8.9,18.39 -9.67,38.57c-0.45,11.82 0.38,22.25 4.26,32.96q0.18,0.5 0.71,0.45l4.24,-0.44" id="svg_67" stroke="#808e86"/>
   <path d="m127.6,280.46q15.74,0.22 29.61,10.06" id="svg_68" stroke="#695438"/>
   <path d="m157.21,290.52q5.24,4.26 9.74,9.91" id="svg_69" stroke="#808e86"/>
   <path d="m166.95,300.43l8.15,13.59" id="svg_70" stroke="#7f715d"/>
   <path d="m175.1,314.02q1.81,5.69 3.17,10.82q0.94,3.56 1.38,7a1.47,1.46 -86.5 0 0 1.08,1.23q12.32,3.23 24.88,0.61a1.37,1.36 86.3 0 0 1.08,-1.23q0.69,-9.28 4.65,-18.34" id="svg_71" stroke="#52362a"/>
   <path d="m211.34,314.11q7.93,-16.2 23.18,-26.68a0.64,0.64 0 0 0 0.05,-1.01q-4.89,-4.16 -8.17,-9.91" id="svg_72" stroke="#7f715d"/>
   <path d="m226.4,276.51q-4.24,-7.34 -4.83,-13.27q-1.42,-14.2 8.42,-26.06q2.5,-3.01 7.76,-6.62" id="svg_73" stroke="#808e86"/>
   <path d="m237.75,230.56q8.81,-5.18 19.91,-6.44" id="svg_74" stroke="#695438"/>
   <path d="m257.66,224.12l6.22,-0.29q0.51,-0.02 0.31,-0.49l-3.15,-7.29" id="svg_75" stroke="#52362a"/>
   <path d="m261.04,216.05q-1.96,-4.11 -2.14,-5.43c-0.78,-5.62 6.91,-8.46 9.45,-3.1q3.65,7.71 7.37,15.67a1.59,1.57 -19.6 0 0 1.83,0.86q5.43,-1.42 9.96,-3.72c2.97,-1.5 7.35,-1.64 9.17,1.51q2.19,3.82 -1.06,6.94" id="svg_76" stroke="#695438"/>
   <path d="m295.62,228.78c-7.24,4.37 -13.24,6.87 -20.06,7.49q-3.31,0.3 -15.75,0.18q-7.26,-0.08 -15.15,4.48" id="svg_77" stroke="#808e86"/>
   <path d="m244.66,240.93q-7.07,4.77 -9.49,12.43c-3.52,11.08 3.63,22.65 14.15,27.25q1.7,0.75 3.65,0.51q16.3,-2.02 30.9,7.84c1.2,0.81 2.25,0.64 3.67,0.49q24.5,-2.46 37.75,-22.69q5.42,-8.27 6.34,-18.47" id="svg_78" stroke="#52362a"/>
   <path d="m331.63,248.29q3.7,-21.4 -5.62,-39.8q-6.91,-13.63 -17.83,-24.38q-5.17,-5.09 -10.38,-9.72" id="svg_79" stroke="#808e86"/>
   <path d="m297.8,174.39q0.57,-4.87 3.82,-6.31q1.66,-0.74 -0.06,-1.32q-4.58,-1.55 -7.98,-4.79" id="svg_80" stroke="#695438"/>
   <path d="m293.58,161.97q6.01,-13.5 7.78,-29.74q2.63,-24.1 -4.15,-45c-2.79,-8.59 -6.66,-15.52 -11.27,-22.71q-1.45,-2.26 0.88,-3.35c2.9,-1.35 5.92,-2.42 8.39,-4.52q10.81,-9.18 7.79,-23.78" id="svg_81" stroke="#52362a"/>
   <path d="m303,32.87q-5.27,-14.89 -19.29,-18.52q-10.43,-2.69 -19.24,4.42" id="svg_82" stroke="#808e86"/>
   <path d="m264.47,18.77q-8.04,7.25 -5.67,17.95q0.36,1.64 -0.93,2.63c-1.49,1.13 -2.99,0.23 -4.18,-0.8q-2.03,-1.77 -4.33,-2.77" id="svg_83" stroke="#695438"/>
   <path d="m249.36,35.78q-1.91,-0.61 -2.87,-2.35q-0.24,-0.43 -0.67,-0.67q-4.5,-2.46 -6.01,-3q-38.44,-13.78 -74.44,5.47" id="svg_84" stroke="#808e86"/>
   <path d="m165.37,35.23q-0.52,-2.72 -0.94,-4.97q-1.35,-7.16 -6.37,-11.45" id="svg_85" stroke="#695438"/>
   <path d="m158.06,18.81q-9.39,-7.57 -20.51,-4.15q-14.24,4.38 -17.67,19.25" id="svg_86" stroke="#808e86"/>
   <path d="m158.06,18.81q-4.86,-1.72 -6.99,-1.75c-9.51,-0.14 -19.98,4.79 -23.85,13.7q-1.03,2.38 -1.97,4.83q-0.62,1.63 -2.2,0.87q-1.76,-0.84 -3.17,-2.55" id="svg_87" stroke="#e9c6b2"/>
   <path d="m165.37,35.23l-8.24,5.38" id="svg_88" stroke="#e9c6b2"/>
   <path d="m157.13,40.61q0.14,-8.23 -5.75,-11.4q-3.87,-2.08 -8.51,-1.33c-9.78,1.57 -15.24,14.97 -7.46,22.15" id="svg_89" stroke="#695438"/>
   <path d="m135.41,50.03q-4.93,1.18 -9.02,5.04" id="svg_90" stroke="#bb6e56"/>
   <path d="m153.62,43.52q-2.43,0.35 -2.6,-1.27c-0.39,-3.82 -0.84,-7.4 -5.54,-7.63c-6.08,-0.29 -9.5,7.45 -4.11,11.57c1.17,0.9 3.42,1.99 3.19,3.68" id="svg_91" stroke="#7f5648"/>
   <path d="m144.56,49.87q-3.84,4.78 -9.15,0.16" id="svg_92" stroke="#52362a"/>
   <path d="m136.72,61.18l6.98,-8.07" id="svg_93" stroke="#d1a7a4"/>
   <path d="m143.7,53.11l9.92,-9.59" id="svg_94" stroke="#ffc7c1"/>
   <path d="m153.62,43.52l3.51,-2.91" id="svg_95" stroke="#808e86"/>
   <path d="m143.7,53.11q-0.03,-0.78 0.55,-1.53q0.36,-0.47 0.41,-0.79q0.07,-0.5 -0.1,-0.92" id="svg_96" stroke="#d16f66"/>
   <path d="m298.17,37.52q-1.68,12.15 -14.85,15.35q-0.13,0.03 -0.29,-0.55" id="svg_97" stroke="#bb6e56"/>
   <path d="m283.03,52.32c11.83,-6.23 7.81,-23.05 -5.01,-24.55q-6.06,-0.71 -10.1,3.62q-3.96,4.25 -2.69,9.16q1.1,4.25 4.92,2.87" id="svg_98" stroke="#695438"/>
   <path d="m270.15,43.42q0.77,1.28 3,1.67q1.6,0.27 3.18,0.83q1.65,0.59 3.54,0.66" id="svg_99" stroke="#e88e74"/>
   <path d="m279.87,46.58q-1.77,1.32 -2.12,2.78q-0.12,0.5 0.15,0.93q1.08,1.74 3.18,2.52" id="svg_100" stroke="#695438"/>
   <path d="m281.08,52.81q1.49,3.03 3.93,4.91a2.43,2.42 45.5 0 1 -0.03,3.87q-0.69,0.51 -1.58,0.71q-0.47,0.1 -0.47,0.58q0,0.14 -0.09,0.26q-0.26,0.36 -0.72,0.49q-1.63,0.45 -3.06,1.43q-0.55,0.38 -1.16,0.67c-1.34,0.62 -1.23,2.19 -0.46,3.21q1.31,1.71 2.11,3.63q2.72,6.55 5.13,13.24c6.62,18.39 6.05,38.5 1.92,57.25q-1.36,6.15 -3.76,11.93a2.25,2.24 22.8 0 0 1.2,2.92l9.54,4.06" id="svg_101" stroke="#bb6e56"/>
   <path d="m297.8,174.39q-3.39,-3.46 -5.58,-1.47c-1.19,1.1 -1.22,2.91 -0.01,3.97c10.58,9.21 19.56,18.13 26.11,30.42q4.5,8.44 6.09,15.67q0.69,3.16 1.05,4.22" id="svg_102" stroke="#e9c6b2"/>
   <path d="m325.46,227.2q-3.26,1.46 -3.31,5.56q-0.13,11.19 -4.91,19.63q-6.94,12.27 -19.2,18.63c-11.1,5.77 -28.07,7.67 -39.75,0.83q-6.29,-3.68 -7.84,-10.38c-0.9,-3.88 -0.03,-9.67 -0.82,-13.99q-0.39,-2.18 -2.33,-6.04" id="svg_103" stroke="#bb6e56"/>
   <path d="m247.3,241.44q10.94,-0.04 22.38,-0.04q7.85,0 14.55,-2.25q7.79,-2.61 11.39,-10.37" id="svg_104" stroke="#e9c6b2"/>
   <path d="m261.04,216.05q-7.9,1.31 -3.38,8.07" id="svg_105" stroke="#bb6e56"/>
   <path d="m237.75,230.56q-14.08,-19.53 -38.2,-20.47q-7.34,-0.28 -13.91,1.73c-18.26,5.58 -31.39,19.45 -36.01,37.73q-5.31,20.99 7.58,40.97" id="svg_106" stroke="#e9c6b2"/>
   <path d="m127.6,280.46q-3.12,-9.3 -3.87,-18.96q-1.98,-25.69 8.16,-49.4a2.4,2.4 0 0 0 -0.71,-2.82q-0.79,-0.63 -3.12,-0.36" id="svg_107" stroke="#e9c6b2"/>
   <path d="m128.08,86.4q3.19,-8.19 4.82,-11.06q17.97,-31.59 51.49,-42.37q10.01,-3.22 19.18,-3.68q23.1,-1.17 44.11,10.53a1.03,1.02 27.4 0 0 1.43,-0.45q0.8,-1.65 0.25,-3.59" id="svg_108" stroke="#e9c6b2"/>
   <path d="m303,32.87q-0.61,2.68 -4.83,4.65" id="svg_109" stroke="#d1a7a4"/>
   <path d="m298.17,37.52q-2.9,-8.94 -8.36,-13.79q-8.62,-7.65 -20.33,-6.3q-0.92,0.11 -2.45,0.73q-1.32,0.54 -2.56,0.61" id="svg_110" stroke="#e9c6b2"/>
   <path d="m283.03,52.32l-1.95,0.49" id="svg_111" stroke="#52362a"/>
   <path d="m279.87,46.58q2.73,-1.94 2.97,-5.05c0.47,-6.32 -8.51,-9.68 -10.96,-3.68c-0.67,1.62 -0.16,3.71 -1.73,5.57" id="svg_112" stroke="#7f5648"/>
   <path d="m244.66,240.93q0.52,0.64 2.64,0.51" id="svg_113" stroke="#d1a7a4"/>
   <path d="m331.63,248.29q0.36,-12.24 -0.83,-17.07q-0.83,-3.35 -5.34,-4.02" id="svg_114" stroke="#d1a7a4"/>
   <path d="m226.4,276.51q-0.12,3.23 -1.29,6.07c-1.2,2.95 -2.09,5.79 -3.77,8.49q-2.91,4.67 -7.06,7.92q-16.41,12.89 -36.18,7.07q-3.83,-1.13 -7.91,-3.65q-1.49,-0.92 -3.24,-1.98" id="svg_115" stroke="#ffe3d7"/>
   <path d="m211.34,314.11q-6.36,2.42 -8.52,2.92q-14.07,3.21 -27.72,-3.01" id="svg_116" stroke="#d18b7b"/>
   <path d="m113.32,93.54c-0.28,-1.84 -0.34,-3.57 -1.11,-5.31c-3.5,-7.83 -12.73,-11.93 -20.83,-8.51c-6.38,2.69 -11.2,9.2 -9.06,16.19c0.51,1.69 -0.21,3.22 -1.66,4.09q-3.21,1.9 -7.14,0.6q-2.27,-0.75 -2.79,-3.12q-1.57,-7.2 -9.38,-8.88c-4.14,-0.89 -9.37,1.14 -11.76,4.87c-1.43,2.23 -2.51,6.92 -6.46,4.24c-2.56,-1.74 -5.62,-3.41 -8.78,-2.84q-6.91,1.25 -9.25,7.12c-2.93,7.39 2.06,14.53 10.01,14.1c3.38,-0.18 5.39,-2.72 7.14,-5.25q0.29,-0.42 0.8,-0.49q5.44,-0.73 7.33,3.65c0.83,1.93 0.64,4.11 1.93,5.84q2.95,3.96 8.01,3.97c1.37,0 2.59,-1.08 3.66,-1.83c2.84,-1.98 6.1,-0.38 7.43,2.54q0.29,0.63 0.09,1.29c-0.57,1.83 -1.81,3.18 -2.02,5.13q-0.35,3.13 1.64,5.6q3.59,4.43 9.28,3.27c3.47,-0.71 4.87,-3.69 6.11,-6.61a1.9,1.9 0 0 1 1.72,-1.16q3.1,-0.07 6.01,0.65q1.08,0.27 1.6,1.24q4.38,8.21 13.08,5.53c5.52,-1.7 8.5,-8.21 4.81,-13.06c-1.79,-2.36 -0.94,-5.27 1.6,-6.62c2.3,-1.21 5.15,-1.61 7.09,-3.43c4.8,-4.5 5.42,-11.96 1.26,-17.03q-3.45,-4.2 -9.72,-5.14q-0.55,-0.09 -0.64,-0.64" id="svg_117" stroke="#808e86"/>
   <path d="m37.18,127.59l-6.78,0.04q-0.39,0 -0.4,0.4q-0.08,35.59 -0.09,70.7c-0.01,6.57 5.86,10.94 12.24,11.01q9.54,0.11 19.31,0.03" id="svg_118" stroke="#808e86"/>
   <path d="m61.46,209.77q9.86,0.15 19.97,0.06q13.77,-0.12 13.87,-13.85q0.04,-5.05 -0.08,-10.39" id="svg_119" stroke="#7f715d"/>
   <path d="m95.22,185.59l-0.16,-35.3q0,-0.61 -0.56,-0.85q-2.3,-0.97 -4.18,-2.69q-0.52,-0.48 -1.02,0.03c-3.51,3.58 -7.6,4.92 -12.52,5.13q-0.87,0.03 -0.25,0.65q1.86,1.85 2.03,4.51" id="svg_120" stroke="#79561d"/>
   <path d="m78.56,157.07l-0.2,5.55a1.36,1.32 -24.6 0 1 -0.33,0.85c-1.39,1.64 -4.27,1.91 -5.73,0.21c-1.2,-1.39 -0.75,-4.71 -0.72,-6.59" id="svg_121" stroke="#807232"/>
   <path d="m71.58,157.09q-0.37,-4.52 3.17,-4.91q1.52,-0.17 0,-0.34q-11.91,-1.32 -16.6,-12.59c-0.37,-0.89 -0.39,-2.02 -0.73,-2.93q-0.19,-0.49 -0.71,-0.55q-9.96,-1.13 -14.56,-9.75a0.62,0.62 0 0 0 -0.9,-0.22q-2.03,1.44 -4.07,1.79" id="svg_122" stroke="#79561d"/>
   <path d="m71.58,157.09q-5.91,-0.09 -10.24,-3.38c-2.08,-1.58 -4.85,-3.84 -6.21,-6.33c-0.95,-1.75 -1.68,-3.53 -3.04,-5.01q-0.79,-0.86 -1.55,-1.71q-0.33,-0.37 -0.8,-0.53c-6.12,-2.13 -8.11,-5.08 -12.17,-8.91" id="svg_123" stroke="#f8ac43"/>
   <path d="m37.57,131.22q0.12,-2.12 -0.39,-3.63" id="svg_124" stroke="#f8c796"/>
   <path d="m78.56,157.07q2.63,0.14 5,-0.83a0.55,0.54 76.9 0 1 0.75,0.47q0.79,11.7 0.55,23.92q-0.2,10.3 -9.12,16.03q-0.7,0.45 -0.24,1.03" id="svg_125" stroke="#f8ac43"/>
   <path d="m75.5,197.69q-1.02,0.06 -1.22,-0.13" id="svg_126" stroke="#ffc783"/>
   <path d="m37.57,131.22c-0.32,4.8 -0.02,9.65 -0.05,14.42q-0.16,19.58 -0.08,39.33c0.01,4.27 1.19,8.41 4.76,10.85c2.69,1.84 7,1.89 10.36,1.9q10.56,0.03 21.72,-0.16" id="svg_127" stroke="#ffe4ac"/>
   <path d="m74.28,197.56q-4.02,9.84 -12.82,12.21" id="svg_128" stroke="#ffe3d7"/>
   <path d="m95.22,185.59q-1.54,0.6 -2.78,1.83q-0.82,0.81 -1.47,2.82c-2.14,6.62 -9,8.53 -15.47,7.45" id="svg_129" stroke="#f8ab6e"/>
   <path d="m107.05,184.48l-0.13,12.44a0.91,0.9 -86.1 0 0 0.79,0.91q3.98,0.48 7.97,-0.23q6.41,-1.13 9.43,-6.97" id="svg_130" stroke="#52362a"/>
   <path d="m125.11,190.63q3.93,-7.42 2.41,-15.65q-2.01,-10.96 -11.49,-14.67q-4.08,-1.6 -8.45,-0.97q-0.64,0.09 -0.64,0.74l0.11,24.4" id="svg_131" stroke="#695438"/>
   <path d="m125.11,190.63q-1.57,-3 -3.3,-4.65q-1.5,-1.42 -4.38,-1.55q-5.16,-0.23 -10.38,0.05" id="svg_132" stroke="#bb6e56"/>
   <path d="m104.13,211.28q-5.28,7.35 -12.86,9.77q-4.91,1.58 -14.64,1.27q-9.05,-0.29 -17.94,-0.3a0.46,0.46 0 0 0 -0.43,0.61q1.46,3.99 4.32,7.74q15.46,20.26 42.83,22.08a0.66,0.66 0 0 0 0.71,-0.67q-0.2,-17.79 5.37,-34.18q1.42,-4.18 2.92,-8.03a0.62,0.62 0 0 0 -0.6,-0.84l-7.22,0.26q-0.49,0.02 -0.83,0.36q-0.89,0.9 -1.63,1.93" id="svg_133" stroke="#52362a"/>
   <path d="m114.31,345.71l38.41,-0.08" id="svg_134" stroke="#1c1e12"/>
   <path d="m152.72,345.63l8.33,-0.21" id="svg_135" stroke="#695438"/>
   <path d="m161.05,345.42l6.17,0.06q0.53,0.01 0.57,-0.52q0.64,-8.78 -1.68,-17.61" id="svg_136" stroke="#52362a"/>
   <path d="m166.11,327.35q-2.69,-14.14 -13.51,-24.16c-15.73,-14.57 -40.1,-14.02 -52.56,4.73c-7.41,11.14 -7.59,25.23 -1.15,36.78a1.87,1.87 0 0 0 1.61,0.95l13.81,0.06" id="svg_137" stroke="#695438"/>
   <path d="m166.11,327.35q-1.56,10.08 -5.06,18.07" id="svg_138" stroke="#bb6e56"/>
   <path d="m152.72,345.63q1.59,-6.44 -1.48,-12.06c-2.88,-5.27 -7.83,-8.78 -13.84,-9.64q-13.24,-1.91 -20.76,9.38q-3.73,5.58 -2.33,12.4" id="svg_139" stroke="#85563e"/>
   <path d="m232.2,345.63l38.59,-0.07" id="svg_140" stroke="#1c1e12"/>
   <path d="m270.79,345.56l14.08,0.09a0.72,0.72 0 0 0 0.61,-0.34q8.24,-13.58 3.82,-28.66q-4.56,-15.51 -20.11,-21.57c-13,-5.06 -27.39,-0.15 -36.67,9.64q-16,16.89 -13.6,40.46a0.65,0.64 86.6 0 0 0.65,0.58l12.63,-0.13" id="svg_141" stroke="#695438"/>
   <path d="m270.79,345.56q1.07,-11.88 -8.56,-18.43q-7.41,-5.03 -14.91,-3.43q-17.56,3.75 -15.12,21.93" id="svg_142" stroke="#85563e"/>
   <path d="m169.76,59.12c4.89,-4.63 9.06,5.28 12.62,1.08c2.84,-3.35 1.13,-7.47 -2.08,-9.72q-6.84,-4.81 -14.11,0.07c-3.35,2.25 -5.59,8.71 -0.15,10.12c1.46,0.38 2.72,-0.61 3.72,-1.55" id="svg_143" stroke="#695438"/>
   <path d="m242.99,52.84c-5.02,-5.65 -15.18,-5.05 -18.74,1.95c-1.39,2.72 -0.63,5.99 2.43,7.02a3.1,3.1 0 0 0 3.16,-0.74q3.83,-3.82 8.29,-0.04c1.9,1.62 4.56,2 5.96,-0.57q2.14,-3.96 -1.1,-7.62" id="svg_144" stroke="#695438"/>
   <path d="m169.79,80.55c0.12,-2.7 2.55,-5.03 5.16,-3.39c1.67,1.05 1.75,3.4 2.62,5.05c1.45,2.73 5.3,1.57 5.98,-1.02c1.86,-7.16 -4.03,-14.84 -11.8,-13.87c-6.22,0.78 -11.09,8.19 -8.78,14.29c1.42,3.75 6.63,2.96 6.82,-1.06" id="svg_145" stroke="#695438"/>
   <path d="m236.87,77.28a2.67,2.66 -77.1 0 1 1.34,2.15q0.09,1.5 0.69,2.79c1.57,3.38 5.9,2 6.57,-1.33c1.21,-6.07 -2.46,-12.42 -8.7,-13.47c-12.35,-2.08 -16.54,17.4 -8.08,16.3a2.64,2.63 7.1 0 0 2.11,-1.64c0.63,-1.61 0.8,-3.84 2.32,-4.83q1.73,-1.13 3.75,0.03" id="svg_146" stroke="#695438"/>
   <path d="m184.68,88.1q-9.19,5.01 -15.51,13.49q-9.75,13.09 -10.72,29.05c-0.92,15 4.61,30.18 15.83,39.67c12,10.15 28.62,12.95 42.97,6.06q7.17,-3.44 10.78,-7.02q17.88,-17.79 14.7,-43.49q-3.16,-25.49 -26.51,-38.62" id="svg_147" stroke="#e9c6b2"/>
   <path d="m216.22,87.24q-0.95,-7.12 -7.9,-7.66q-5.87,-0.46 -13.48,-0.07q-4.83,0.24 -6.85,1.52q-3.46,2.17 -3.31,7.07" id="svg_148" stroke="#695438"/>
   <path d="m216.22,87.24c0.13,9.22 -2.22,16.24 -12.31,17.1q-0.46,0.04 -0.51,0.51c-0.52,5.35 0.07,11.61 5.23,13.87q5.96,2.61 8.84,-3.16q1.37,-2.77 4.28,-1.73q0.25,0.09 0.48,0.25q2.64,1.83 1.9,4.73c-0.77,3.01 -2.57,4.01 -5.02,5.47a1.12,1.1 74.7 0 0 -0.53,0.95q0.07,9.67 0.13,19.82q0.02,4.75 -1.51,7.95c-4.34,9.06 -14.1,14.53 -23.54,10.98q-12.76,-4.8 -12.78,-19.3q-0.01,-9.06 0.12,-18.99q0.01,-0.88 -0.75,-1.34c-3.17,-1.92 -5.81,-5.12 -4.12,-8.97c0.79,-1.79 2.78,-2 4.44,-1.62a2.03,2.02 -6.9 0 1 1.37,1.07c1.37,2.76 2.86,4.76 6.4,4.4c7.86,-0.78 8.59,-7.77 7.83,-14.29q-0.06,-0.5 -0.56,-0.57c-8.27,-1.24 -11.65,-8.37 -10.93,-16.27" id="svg_149" stroke="#808e86"/>
   <path d="m150.27,86.73q-3.21,0.75 -3.96,1.29q-7.63,5.52 -2.01,13.32c2.09,2.91 4.56,3.72 8.14,3.25q1.94,-0.26 3.96,-1.95q7.08,-5.94 0.71,-13.55" id="svg_150" stroke="#e88e74"/>
   <path d="m157.11,89.09q1.68,-1.87 1.88,-3.86c0.65,-6.38 -10.31,-7.47 -8.72,1.5" id="svg_151" stroke="#85563e"/>
   <path d="m157.11,89.09q-4.6,1.53 -6.84,-2.36" id="svg_152" stroke="#9b574d"/>
   <path d="m250.04,88.99q-6.39,4.27 -2.56,11.43c2.23,4.17 6.38,4.87 10.61,3.55c5.32,-1.66 7.07,-7.01 4.8,-12.05q-1.91,-4.25 -6.8,-5.23" id="svg_153" stroke="#e88e74"/>
   <path d="m256.09,86.69c2.55,-6.72 -7.12,-8.75 -8.03,-2.22q-0.44,3.14 1.98,4.52" id="svg_154" stroke="#85563e"/>
   <path d="m256.09,86.69q-2.32,3.95 -6.05,2.3" id="svg_155" stroke="#9b574d"/>
   <path d="m56.65,54.64a2.87,2.71 84.9 0 0 2.44,-3.1a2.87,2.71 84.9 0 0 -2.96,-2.62a2.87,2.71 84.9 0 0 -2.44,3.1a2.87,2.71 84.9 0 0 2.96,2.62" id="svg_156" stroke="#807232"/>
   <path d="m96.27,120.19a5.62,5.62 0 0 0 -5.62,-5.62a5.62,5.62 0 0 0 -5.62,5.62a5.62,5.62 0 0 0 5.62,5.62a5.62,5.62 0 0 0 5.62,-5.62" id="svg_157" stroke="#808e86"/>
   <path d="m191.12,138.76q-3.85,4.93 -2.38,10.15c1.4,4.96 6.09,8.4 11.02,8.26q9.18,-0.27 11.5,-9.48q0.66,-2.59 0.2,-11.82" id="svg_158" stroke="#7f5648"/>
   <path d="m211.46,135.87l0.02,-5.63a0.58,0.58 0 0 0 -0.66,-0.58q-11.37,1.6 -19.7,9.1" id="svg_159" stroke="#52362a"/>
   <path d="m211.46,135.87c-4.38,0.31 -8.51,3.21 -11.97,5.63q-0.88,0.62 -1.86,0.18l-6.51,-2.92" id="svg_160" stroke="#d16f66"/>
   <path d="m52.89,145.94a3.68,3.68 0 0 0 -3.68,-3.68l-0.14,0a3.68,3.68 0 0 0 -3.68,3.68l0,39.14a3.68,3.68 0 0 0 3.68,3.68l0.14,0a3.68,3.68 0 0 0 3.68,-3.68l0,-39.14" id="svg_161" stroke="#807232"/>
   <path d="m78.58,177.05a3.34,3.34 0 0 0 -3.4,-3.28l-0.4,0a3.34,3.34 0 0 0 -3.28,3.4l0.16,8.86a3.34,3.34 0 0 0 3.4,3.28l0.4,0a3.34,3.34 0 0 0 3.28,-3.4l-0.16,-8.86" id="svg_162" stroke="#807232"/>
   <path d="m146.57,310.88a5.34,5.34 0 0 0 -5.34,-5.34a5.34,5.34 0 0 0 -5.34,5.34a5.34,5.34 0 0 0 5.34,5.34a5.34,5.34 0 0 0 5.34,-5.34" id="svg_163" stroke="#85563e"/>
   <path d="m129.42,311a5.3,5.3 0 0 0 -5.3,-5.3a5.3,5.3 0 0 0 -5.3,5.3a5.3,5.3 0 0 0 5.3,5.3a5.3,5.3 0 0 0 5.3,-5.3" id="svg_164" stroke="#85563e"/>
   <path d="m114.52,322.02a5.39,5.39 0 0 0 -5.39,-5.39a5.39,5.39 0 0 0 -5.39,5.39a5.39,5.39 0 0 0 5.39,5.39a5.39,5.39 0 0 0 5.39,-5.39" id="svg_165" stroke="#85563e"/>
   <path d="m258.86,316.47a5.5,5.16 94.7 0 0 5.59,-5.06a5.5,5.16 94.7 0 0 -4.69,-5.9a5.5,5.16 94.7 0 0 -5.59,5.06a5.5,5.16 94.7 0 0 4.69,5.9" id="svg_166" stroke="#85563e"/>
   <path d="m243.03,316.4a5.35,5.16 78.7 0 0 4.01,-6.26a5.35,5.16 78.7 0 0 -6.11,-4.24a5.35,5.16 78.7 0 0 -4.01,6.26a5.35,5.16 78.7 0 0 6.11,4.24" id="svg_167" stroke="#85563e"/>
   <path d="m275.09,327.55a5.59,5.18 88.4 0 0 5.02,-5.73a5.59,5.18 88.4 0 0 -5.34,-5.45a5.59,5.18 88.4 0 0 -5.02,5.73a5.59,5.18 88.4 0 0 5.34,5.45" id="svg_168" stroke="#85563e"/>
  </g>
  <path d="m299.67,345.75c4.14,0.04 9.86,-1.11 12.39,2.94q1.54,2.47 0.37,5.18c-1.07,2.49 -3.23,3.69 -5.82,3.69q-117.04,0 -228.62,-0.06c-7.98,-0.01 -8.32,-12.03 0.22,-11.82q3.94,0.1 7.25,0.04a0.36,0.35 81.2 0 0 0.33,-0.46q-1.33,-4.45 -2.35,-8.97q-1.18,-5.22 -1.14,-9.47q0.2,-20.56 15.53,-34.56q5.46,-4.98 12.3,-8.04a0.99,0.98 69 0 0 0.53,-1.2c-1.5,-4.62 -2.79,-9.24 -3.46,-13.96q-0.29,-2.02 -0.74,-3.97q-0.12,-0.5 -0.63,-0.52q-11.74,-0.5 -22.43,-4.32q-27.13,-9.67 -38.2,-37.4q-0.23,-0.57 -0.84,-0.56q-3.96,0.07 -7.62,-0.78q-11.38,-2.63 -16.93,-13.37c-1.96,-3.79 -2.4,-7.14 -2.39,-11.44q0.09,-35.97 0.15,-73.95c0,-2.47 -1.47,-3.27 -2.54,-5.17q-5.75,-10.25 -0.77,-20.97q4.57,-9.82 14.33,-13.13q6.27,-2.13 13.84,0.12q0.48,0.14 0.79,-0.25q2.07,-2.63 4.58,-4.05q11.8,-6.69 24.42,0.13a1.32,1.32 0 0 0 1.91,-0.85c0.52,-2.15 4.24,-5.31 6.01,-6.62q3.17,-2.36 6.57,-3.67q14.69,-5.64 29.15,4.57a0.67,0.66 -57 0 0 0.95,-0.21l3.31,-5.63q0.38,-0.64 -0.16,-1.16q-4.89,-4.7 -7.9,-9.71q-6.64,-11.08 -4.12,-23.98q2.32,-11.79 10.93,-19.89q4.95,-4.66 10.23,-7.19q11.26,-5.39 22.41,-2.59q14.27,3.59 21.39,16.35a1.02,1.01 -28.4 0 0 1.35,0.4q3.93,-2.03 8.08,-3.2q16.06,-4.55 32.69,-3.53q1.38,0.09 5.04,0.59c2.27,0.31 4.49,0.36 6.77,0.83c7.75,1.6 15.01,3.37 21.4,6.63q0.56,0.29 0.85,-0.28q6.12,-12.29 19.13,-17.06q6.28,-2.3 12.57,-1.64q16.04,1.67 26.05,13.91q10.85,13.27 8.16,30.18c-1.28,8.04 -6.28,15.67 -12.62,20.47a1.35,1.34 57 0 0 -0.36,1.72q7.78,14.12 10.92,32.71q4.99,29.59 -5.29,58.25q-0.67,1.86 -1.51,3.61q-0.85,1.77 -1.27,3.69a0.83,0.83 0 0 0 0.34,0.85q10.86,7.49 20.27,18.79q11.58,13.92 16.67,31.45q1.88,6.49 2.64,14.08q2.15,21.65 -8.11,40.22q-1.3,2.35 -3.55,5.17c-1.76,2.2 -3.43,4.47 -5.4,6.48q-7.88,8.06 -19.01,12.89q-6.33,2.74 -12.84,4.33a0.7,0.7 0 0 0 -0.43,1.05q11.96,19.39 4.75,41.4c-0.26,0.79 -0.88,1.45 -1.07,2.2q-0.17,0.7 0.55,0.71zm-179.79,-311.84q-2.28,12.22 6.51,21.16q4.37,3.46 10.33,6.11q-8.28,10.71 -12.6,22.39q-0.18,0.47 0.26,0.72l3.7,2.11q7.59,5.86 9.79,13.56q4.81,16.86 -9.69,28.13a1.53,1.5 81.4 0 0 -0.5,0.69q-0.24,0.69 -0.13,1.51c0.91,6.45 -2.62,12.89 -7.69,16.92a0.79,0.79 0 0 0 0.24,1.36c8.71,2.92 15.41,10.04 18.42,18.6q5.7,16.16 -3.53,31.05q-0.9,1.46 -3.53,3.94q-3.48,3.27 -3.4,6.76q-8.9,18.39 -9.67,38.57c-0.45,11.82 0.38,22.25 4.26,32.96q0.18,0.5 0.71,0.45l4.24,-0.44q15.74,0.22 29.61,10.06q5.24,4.26 9.74,9.91l8.15,13.59q1.81,5.69 3.17,10.82q0.94,3.56 1.38,7a1.47,1.46 -86.5 0 0 1.08,1.23q12.32,3.23 24.88,0.61a1.37,1.36 86.3 0 0 1.08,-1.23q0.69,-9.28 4.65,-18.34q7.93,-16.2 23.18,-26.68a0.64,0.64 0 0 0 0.05,-1.01q-4.89,-4.16 -8.17,-9.91q-4.24,-7.34 -4.83,-13.27q-1.42,-14.2 8.42,-26.06q2.5,-3.01 7.76,-6.62q8.81,-5.18 19.91,-6.44l6.22,-0.29q0.51,-0.02 0.31,-0.49l-3.15,-7.29q-1.96,-4.11 -2.14,-5.43c-0.78,-5.62 6.91,-8.46 9.45,-3.1q3.65,7.71 7.37,15.67a1.59,1.57 -19.6 0 0 1.83,0.86q5.43,-1.42 9.96,-3.72c2.97,-1.5 7.35,-1.64 9.17,1.51q2.19,3.82 -1.06,6.94c-7.24,4.37 -13.24,6.87 -20.06,7.49q-3.31,0.3 -15.75,0.18q-7.26,-0.08 -15.15,4.48q-7.07,4.77 -9.49,12.43c-3.52,11.08 3.63,22.65 14.15,27.25q1.7,0.75 3.65,0.51q16.3,-2.02 30.9,7.84c1.2,0.81 2.25,0.64 3.67,0.49q24.5,-2.46 37.75,-22.69q5.42,-8.27 6.34,-18.47q3.7,-21.4 -5.62,-39.8q-6.91,-13.63 -17.83,-24.38q-5.17,-5.09 -10.38,-9.72q0.57,-4.87 3.82,-6.31q1.66,-0.74 -0.06,-1.32q-4.58,-1.55 -7.98,-4.79q6.01,-13.5 7.78,-29.74q2.63,-24.1 -4.15,-45c-2.79,-8.59 -6.66,-15.52 -11.27,-22.71q-1.45,-2.26 0.88,-3.35c2.9,-1.35 5.92,-2.42 8.39,-4.52q10.81,-9.18 7.79,-23.78q-5.27,-14.89 -19.29,-18.52q-10.43,-2.69 -19.24,4.42q-8.04,7.25 -5.67,17.95q0.36,1.64 -0.93,2.63c-1.49,1.13 -2.99,0.23 -4.18,-0.8q-2.03,-1.77 -4.33,-2.77q-1.91,-0.61 -2.87,-2.35q-0.24,-0.43 -0.67,-0.67q-4.5,-2.46 -6.01,-3q-38.44,-13.78 -74.44,5.47q-0.52,-2.72 -0.94,-4.97q-1.35,-7.16 -6.37,-11.45q-9.39,-7.57 -20.51,-4.15q-14.24,4.38 -17.67,19.25zm-6.56,59.63c-0.28,-1.84 -0.34,-3.57 -1.11,-5.31c-3.5,-7.83 -12.73,-11.93 -20.83,-8.51c-6.38,2.69 -11.2,9.2 -9.06,16.19c0.51,1.69 -0.21,3.22 -1.66,4.09q-3.21,1.9 -7.14,0.6q-2.27,-0.75 -2.79,-3.12q-1.57,-7.2 -9.38,-8.88c-4.14,-0.89 -9.37,1.14 -11.76,4.87c-1.43,2.23 -2.51,6.92 -6.46,4.24c-2.56,-1.74 -5.62,-3.41 -8.78,-2.84q-6.91,1.25 -9.25,7.12c-2.93,7.39 2.06,14.53 10.01,14.1c3.38,-0.18 5.39,-2.72 7.14,-5.25q0.29,-0.42 0.8,-0.49q5.44,-0.73 7.33,3.65c0.83,1.93 0.64,4.11 1.93,5.84q2.95,3.96 8.01,3.97c1.37,0 2.59,-1.08 3.66,-1.83c2.84,-1.98 6.1,-0.38 7.43,2.54q0.29,0.63 0.09,1.29c-0.57,1.83 -1.81,3.18 -2.02,5.13q-0.35,3.13 1.64,5.6q3.59,4.43 9.28,3.27c3.47,-0.71 4.87,-3.69 6.11,-6.61a1.9,1.9 0 0 1 1.72,-1.16q3.1,-0.07 6.01,0.65q1.08,0.27 1.6,1.24q4.38,8.21 13.08,5.53c5.52,-1.7 8.5,-8.21 4.81,-13.06c-1.79,-2.36 -0.94,-5.27 1.6,-6.62c2.3,-1.21 5.15,-1.61 7.09,-3.43c4.8,-4.5 5.42,-11.96 1.26,-17.03q-3.45,-4.2 -9.72,-5.14q-0.55,-0.09 -0.64,-0.64zm-76.14,34.05l-6.78,0.04q-0.39,0 -0.4,0.4q-0.08,35.59 -0.09,70.7c-0.01,6.57 5.86,10.94 12.24,11.01q9.54,0.11 19.31,0.03q9.86,0.15 19.97,0.06q13.77,-0.12 13.87,-13.85q0.04,-5.05 -0.08,-10.39l-0.16,-35.3q0,-0.61 -0.56,-0.85q-2.3,-0.97 -4.18,-2.69q-0.52,-0.48 -1.02,0.03c-3.51,3.58 -7.6,4.92 -12.52,5.13q-0.87,0.03 -0.25,0.65q1.86,1.85 2.03,4.51l-0.2,5.55a1.36,1.32 -24.6 0 1 -0.33,0.85c-1.39,1.64 -4.27,1.91 -5.73,0.21c-1.2,-1.39 -0.75,-4.71 -0.72,-6.59q-0.37,-4.52 3.17,-4.91q1.52,-0.17 0,-0.34q-11.91,-1.32 -16.6,-12.59c-0.37,-0.89 -0.39,-2.02 -0.73,-2.93q-0.19,-0.49 -0.71,-0.55q-9.96,-1.13 -14.56,-9.75a0.62,0.62 0 0 0 -0.9,-0.22q-2.03,1.44 -4.07,1.79zm69.87,56.89l-0.13,12.44a0.91,0.9 -86.1 0 0 0.79,0.91q3.98,0.48 7.97,-0.23q6.41,-1.13 9.43,-6.97q3.93,-7.42 2.41,-15.65q-2.01,-10.96 -11.49,-14.67q-4.08,-1.6 -8.45,-0.97q-0.64,0.09 -0.64,0.74l0.11,24.4zm-2.92,26.8q-5.28,7.35 -12.86,9.77q-4.91,1.58 -14.64,1.27q-9.05,-0.29 -17.94,-0.3a0.46,0.46 0 0 0 -0.43,0.61q1.46,3.99 4.32,7.74q15.46,20.26 42.83,22.08a0.66,0.66 0 0 0 0.71,-0.67q-0.2,-17.79 5.37,-34.18q1.42,-4.18 2.92,-8.03a0.62,0.62 0 0 0 -0.6,-0.84l-7.22,0.26q-0.49,0.02 -0.83,0.36q-0.89,0.9 -1.63,1.93zm10.18,134.43l38.41,-0.08l8.33,-0.21l6.17,0.06q0.53,0.01 0.57,-0.52q0.64,-8.78 -1.68,-17.61q-2.69,-14.14 -13.51,-24.16c-15.73,-14.57 -40.1,-14.02 -52.56,4.73c-7.41,11.14 -7.59,25.23 -1.15,36.78a1.87,1.87 0 0 0 1.61,0.95l13.81,0.06zm117.89,-0.08l38.59,-0.07l14.08,0.09a0.72,0.72 0 0 0 0.61,-0.34q8.24,-13.58 3.82,-28.66q-4.56,-15.51 -20.11,-21.57c-13,-5.06 -27.39,-0.15 -36.67,9.64q-16,16.89 -13.6,40.46a0.65,0.64 86.6 0 0 0.65,0.58l12.63,-0.13z" fill="#001c0c" id="svg_61"/>
  <path d="m158.06,18.81q-4.86,-1.72 -6.99,-1.75c-9.51,-0.14 -19.98,4.79 -23.85,13.7q-1.03,2.38 -1.97,4.83q-0.62,1.63 -2.2,0.87q-1.76,-0.84 -3.17,-2.55q3.43,-14.87 17.67,-19.25q11.12,-3.42 20.51,4.15z" fill="#ffffff" id="svg_60"/>
  <path d="m303,32.87q-0.61,2.68 -4.83,4.65q-2.9,-8.94 -8.36,-13.79q-8.62,-7.65 -20.33,-6.3q-0.92,0.11 -2.45,0.73q-1.32,0.54 -2.56,0.61q8.81,-7.11 19.24,-4.42q14.02,3.63 19.29,18.52z" fill="#ffffff" id="svg_59"/>
  <path d="m83.98,24.72c1.07,0.7 2.31,1.46 3.61,1.58q1.81,0.16 3.16,1.41a1.1,1.08 -70.9 0 1 0.34,0.72c0.15,2.01 -1.29,3.85 -3.32,4.04q-2.23,0.22 -4.14,2.16q-0.39,0.4 -0.46,0.94c-0.26,2.01 -0.51,6.11 -3.35,6.29a2.53,2.53 0 0 1 -2.6,-1.86q-0.62,-2.26 -0.97,-4.42c-0.45,-2.75 -4.27,-3.28 -6.41,-3.87a2.52,2.5 89.3 0 1 -1.72,-1.69c-0.54,-1.79 0.43,-3.52 2.31,-3.72c5.43,-0.58 5.9,-3.24 6.65,-7.9a2.69,2.67 -0.8 0 1 2.15,-2.2c1.73,-0.32 3.13,0.91 3.27,2.59q0.24,2.74 0.95,5.21a1.34,1.28 10 0 0 0.53,0.72z" fill="#001c0c" id="svg_58"/>
  <path d="m158.06,18.81q5.02,4.29 6.37,11.45q0.42,2.25 0.94,4.97l-8.24,5.38q0.14,-8.23 -5.75,-11.4q-3.87,-2.08 -8.51,-1.33c-9.78,1.57 -15.24,14.97 -7.46,22.15q-4.93,1.18 -9.02,5.04q-8.79,-8.94 -6.51,-21.16q1.41,1.71 3.17,2.55q1.58,0.76 2.2,-0.87q0.94,-2.45 1.97,-4.83c3.87,-8.91 14.34,-13.84 23.85,-13.7q2.13,0.03 6.99,1.75z" fill="#d28c64" id="svg_57"/>
  <path d="m298.17,37.52q-1.68,12.15 -14.85,15.35q-0.13,0.03 -0.29,-0.55c11.83,-6.23 7.81,-23.05 -5.01,-24.55q-6.06,-0.71 -10.1,3.62q-3.96,4.25 -2.69,9.16q1.1,4.25 4.92,2.87q0.77,1.28 3,1.67q1.6,0.27 3.18,0.83q1.65,0.59 3.54,0.66q-1.77,1.32 -2.12,2.78q-0.12,0.5 0.15,0.93q1.08,1.74 3.18,2.52q1.49,3.03 3.93,4.91a2.43,2.42 45.5 0 1 -0.03,3.87q-0.69,0.51 -1.58,0.71q-0.47,0.1 -0.47,0.58q0,0.14 -0.09,0.26q-0.26,0.36 -0.72,0.49q-1.63,0.45 -3.06,1.43q-0.55,0.38 -1.16,0.67c-1.34,0.62 -1.23,2.19 -0.46,3.21q1.31,1.71 2.11,3.63q2.72,6.55 5.13,13.24c6.62,18.39 6.05,38.5 1.92,57.25q-1.36,6.15 -3.76,11.93a2.25,2.24 22.8 0 0 1.2,2.92l9.54,4.06q3.4,3.24 7.98,4.79q1.72,0.58 0.06,1.32q-3.25,1.44 -3.82,6.31q-3.39,-3.46 -5.58,-1.47c-1.19,1.1 -1.22,2.91 -0.01,3.97c10.58,9.21 19.56,18.13 26.11,30.42q4.5,8.44 6.09,15.67q0.69,3.16 1.05,4.22q-3.26,1.46 -3.31,5.56q-0.13,11.19 -4.91,19.63q-6.94,12.27 -19.2,18.63c-11.1,5.77 -28.07,7.67 -39.75,0.83q-6.29,-3.68 -7.84,-10.38c-0.9,-3.88 -0.03,-9.67 -0.82,-13.99q-0.39,-2.18 -2.33,-6.04q10.94,-0.04 22.38,-0.04q7.85,0 14.55,-2.25q7.79,-2.61 11.39,-10.37q3.25,-3.12 1.06,-6.94c-1.82,-3.15 -6.2,-3.01 -9.17,-1.51q-4.53,2.3 -9.96,3.72a1.59,1.57 -19.6 0 1 -1.83,-0.86q-3.72,-7.96 -7.37,-15.67c-2.54,-5.36 -10.23,-2.52 -9.45,3.1q0.18,1.32 2.14,5.43q-7.9,1.31 -3.38,8.07q-11.1,1.26 -19.91,6.44q-14.08,-19.53 -38.2,-20.47q-7.34,-0.28 -13.91,1.73c-18.26,5.58 -31.39,19.45 -36.01,37.73q-5.31,20.99 7.58,40.97q-13.87,-9.84 -29.61,-10.06q-3.12,-9.3 -3.87,-18.96q-1.98,-25.69 8.16,-49.4a2.4,2.4 0 0 0 -0.71,-2.82q-0.79,-0.63 -3.12,-0.36q-0.08,-3.49 3.4,-6.76q2.63,-2.48 3.53,-3.94q9.23,-14.89 3.53,-31.05c-3.01,-8.56 -9.71,-15.68 -18.42,-18.6a0.79,0.79 0 0 1 -0.24,-1.36c5.07,-4.03 8.6,-10.47 7.69,-16.92q-0.11,-0.82 0.13,-1.51a1.53,1.5 81.4 0 1 0.5,-0.69q14.5,-11.27 9.69,-28.13q-2.2,-7.7 -9.79,-13.56q3.19,-8.19 4.82,-11.06q17.97,-31.59 51.49,-42.37q10.01,-3.22 19.18,-3.68q23.1,-1.17 44.11,10.53a1.03,1.02 27.4 0 0 1.43,-0.45q0.8,-1.65 0.25,-3.59q2.3,1 4.33,2.77c1.19,1.03 2.69,1.93 4.18,0.8q1.29,-0.99 0.93,-2.63q-2.37,-10.7 5.67,-17.95q1.24,-0.07 2.56,-0.61q1.53,-0.62 2.45,-0.73q11.71,-1.35 20.33,6.3q5.46,4.85 8.36,13.79zm-128.41,21.6c4.89,-4.63 9.06,5.28 12.62,1.08c2.84,-3.35 1.13,-7.47 -2.08,-9.72q-6.84,-4.81 -14.11,0.07c-3.35,2.25 -5.59,8.71 -0.15,10.12c1.46,0.38 2.72,-0.61 3.72,-1.55zm73.23,-6.28c-5.02,-5.65 -15.18,-5.05 -18.74,1.95c-1.39,2.72 -0.63,5.99 2.43,7.02a3.1,3.1 0 0 0 3.16,-0.74q3.83,-3.82 8.29,-0.04c1.9,1.62 4.56,2 5.96,-0.57q2.14,-3.96 -1.1,-7.62zm-73.2,27.71c0.12,-2.7 2.55,-5.03 5.16,-3.39c1.67,1.05 1.75,3.4 2.62,5.05c1.45,2.73 5.3,1.57 5.98,-1.02c1.86,-7.16 -4.03,-14.84 -11.8,-13.87c-6.22,0.78 -11.09,8.19 -8.78,14.29c1.42,3.75 6.63,2.96 6.82,-1.06zm67.08,-3.27a2.67,2.66 -77.1 0 1 1.34,2.15q0.09,1.5 0.69,2.79c1.57,3.38 5.9,2 6.57,-1.33c1.21,-6.07 -2.46,-12.42 -8.7,-13.47c-12.35,-2.08 -16.54,17.4 -8.08,16.3a2.64,2.63 7.1 0 0 2.11,-1.64c0.63,-1.61 0.8,-3.84 2.32,-4.83q1.73,-1.13 3.75,0.03zm-52.19,10.82q-9.19,5.01 -15.51,13.49q-9.75,13.09 -10.72,29.05c-0.92,15 4.61,30.18 15.83,39.67c12,10.15 28.62,12.95 42.97,6.06q7.17,-3.44 10.78,-7.02q17.88,-17.79 14.7,-43.49q-3.16,-25.49 -26.51,-38.62q-0.95,-7.12 -7.9,-7.66q-5.87,-0.46 -13.48,-0.07q-4.83,0.24 -6.85,1.52q-3.46,2.17 -3.31,7.07zm-34.41,-1.37q-3.21,0.75 -3.96,1.29q-7.63,5.52 -2.01,13.32c2.09,2.91 4.56,3.72 8.14,3.25q1.94,-0.26 3.96,-1.95q7.08,-5.94 0.71,-13.55q1.68,-1.87 1.88,-3.86c0.65,-6.38 -10.31,-7.47 -8.72,1.5zm99.77,2.26q-6.39,4.27 -2.56,11.43c2.23,4.17 6.38,4.87 10.61,3.55c5.32,-1.66 7.07,-7.01 4.8,-12.05q-1.91,-4.25 -6.8,-5.23c2.55,-6.72 -7.12,-8.75 -8.03,-2.22q-0.44,3.14 1.98,4.52z" fill="#d28c64" id="svg_56"/>
  <path d="m249.36,35.78q0.55,1.94 -0.25,3.59a1.03,1.02 27.4 0 1 -1.43,0.45q-21.01,-11.7 -44.11,-10.53q-9.17,0.46 -19.18,3.68q-33.52,10.78 -51.49,42.37q-1.63,2.87 -4.82,11.06l-3.7,-2.11q-0.44,-0.25 -0.26,-0.72q4.32,-11.68 12.6,-22.39l6.98,-8.07l9.92,-9.59l3.51,-2.91l8.24,-5.38q36,-19.25 74.44,-5.47q1.51,0.54 6.01,3q0.43,0.24 0.67,0.67q0.96,1.74 2.87,2.35z" fill="#ffffff" id="svg_55"/>
  <path d="m157.13,40.61l-3.51,2.91q-2.43,0.35 -2.6,-1.27c-0.39,-3.82 -0.84,-7.4 -5.54,-7.63c-6.08,-0.29 -9.5,7.45 -4.11,11.57c1.17,0.9 3.42,1.99 3.19,3.68q-3.84,4.78 -9.15,0.16c-7.78,-7.18 -2.32,-20.58 7.46,-22.15q4.64,-0.75 8.51,1.33q5.89,3.17 5.75,11.4z" fill="#001c0c" id="svg_54"/>
  <path d="m283.03,52.32l-1.95,0.49q-2.1,-0.78 -3.18,-2.52q-0.27,-0.43 -0.15,-0.93q0.35,-1.46 2.12,-2.78q2.73,-1.94 2.97,-5.05c0.47,-6.32 -8.51,-9.68 -10.96,-3.68c-0.67,1.62 -0.16,3.71 -1.73,5.57q-3.82,1.38 -4.92,-2.87q-1.27,-4.91 2.69,-9.16q4.04,-4.33 10.1,-3.62c12.82,1.5 16.84,18.32 5.01,24.55z" fill="#001c0c" id="svg_53"/>
  <path d="m303,32.87q3.02,14.6 -7.79,23.78c-2.47,2.1 -5.49,3.17 -8.39,4.52q-2.33,1.09 -0.88,3.35c4.61,7.19 8.48,14.12 11.27,22.71q6.78,20.9 4.15,45q-1.77,16.24 -7.78,29.74l-9.54,-4.06a2.25,2.24 22.8 0 1 -1.2,-2.92q2.4,-5.78 3.76,-11.93c4.13,-18.75 4.7,-38.86 -1.92,-57.25q-2.41,-6.69 -5.13,-13.24q-0.8,-1.92 -2.11,-3.63c-0.77,-1.02 -0.88,-2.59 0.46,-3.21q0.61,-0.29 1.16,-0.67q1.43,-0.98 3.06,-1.43q0.46,-0.13 0.72,-0.49q0.09,-0.12 0.09,-0.26q0,-0.48 0.47,-0.58q0.89,-0.2 1.58,-0.71a2.43,2.42 45.5 0 0 0.03,-3.87q-2.44,-1.88 -3.93,-4.91l1.95,-0.49q0.16,0.58 0.29,0.55q13.17,-3.2 14.85,-15.35q4.22,-1.97 4.83,-4.65z" fill="#a34f48" id="svg_52"/>
  <path d="m153.62,43.52l-9.92,9.59q-0.03,-0.78 0.55,-1.53q0.36,-0.47 0.41,-0.79q0.07,-0.5 -0.1,-0.92c0.23,-1.69 -2.02,-2.78 -3.19,-3.68c-5.39,-4.12 -1.97,-11.86 4.11,-11.57c4.7,0.23 5.15,3.81 5.54,7.63q0.17,1.62 2.6,1.27z" fill="#fe8f83" id="svg_51"/>
  <path d="m279.87,46.58q-1.89,-0.07 -3.54,-0.66q-1.58,-0.56 -3.18,-0.83q-2.23,-0.39 -3,-1.67c1.57,-1.86 1.06,-3.95 1.73,-5.57c2.45,-6 11.43,-2.64 10.96,3.68q-0.24,3.11 -2.97,5.05z" fill="#fe8f83" id="svg_50"/>
  <path d="m56.98,62.19a10.29,10.03 87 0 1 -10.56,-9.76a10.29,10.03 87 0 1 9.48,-10.8a10.29,10.03 87 0 1 10.56,9.76a10.29,10.03 87 0 1 -9.48,10.8zm-0.33,-7.55a2.87,2.71 84.9 0 0 2.44,-3.1a2.87,2.71 84.9 0 0 -2.96,-2.62a2.87,2.71 84.9 0 0 -2.44,3.1a2.87,2.71 84.9 0 0 2.96,2.62z" fill="#001c0c" id="svg_49"/>
  <path d="m182.38,60.2c-3.56,4.2 -7.73,-5.71 -12.62,-1.08c-1,0.94 -2.26,1.93 -3.72,1.55c-5.44,-1.41 -3.2,-7.87 0.15,-10.12q7.27,-4.88 14.11,-0.07c3.21,2.25 4.92,6.37 2.08,9.72z" fill="#001c0c" id="svg_48"/>
  <ellipse cx="56.39" cy="51.78" fill="#ffc858" id="svg_47" rx="2.87" ry="2.71" transform="rotate(84.9 56.3864 51.7772)"/>
  <path d="m224.25,54.79c3.56,-7 13.72,-7.6 18.74,-1.95q3.24,3.66 1.1,7.62c-1.4,2.57 -4.06,2.19 -5.96,0.57q-4.46,-3.78 -8.29,0.04a3.1,3.1 0 0 1 -3.16,0.74c-3.06,-1.03 -3.82,-4.3 -2.43,-7.02z" fill="#001c0c" id="svg_46"/>
  <path d="m144.56,49.87q0.17,0.42 0.1,0.92q-0.05,0.32 -0.41,0.79q-0.58,0.75 -0.55,1.53l-6.98,8.07q-5.96,-2.65 -10.33,-6.11q4.09,-3.86 9.02,-5.04q5.31,4.62 9.15,-0.16z" fill="#a34f48" id="svg_45"/>
  <path d="m335.65,86.62q-2.92,-1.82 -5.97,-2.29a2.98,2.98 0 0 1 -2.52,-2.72c-0.32,-4.26 8.23,-2.83 9.19,-7.92c0.26,-1.39 0.69,-2.49 0.75,-3.95q0.06,-1.26 1.03,-2.34c1.94,-2.12 5.18,-0.08 5.24,2.41q0.08,2.96 1.38,5.77a1.07,1.06 1 0 0 0.52,0.53q0.59,0.28 1.1,0.67q0.39,0.3 0.86,0.4c1.79,0.4 5.12,1.38 5.69,3.31c1.06,3.58 -4.4,4.52 -6.65,4.93q-0.5,0.09 -0.84,0.47l-1.59,1.76q-0.31,0.33 -0.35,0.78q-0.14,1.6 -0.23,3.21c-0.05,0.9 -0.52,1.56 -1.01,2.31q-0.28,0.43 -0.76,0.63c-4.46,1.79 -5.03,-3.83 -5.1,-6.65a1.6,1.57 -74.9 0 0 -0.74,-1.31z" fill="#001c0c" id="svg_44"/>
  <path d="m174.95,77.16c-2.61,-1.64 -5.04,0.69 -5.16,3.39c-0.19,4.02 -5.4,4.81 -6.82,1.06c-2.31,-6.1 2.56,-13.51 8.78,-14.29c7.77,-0.97 13.66,6.71 11.8,13.87c-0.68,2.59 -4.53,3.75 -5.98,1.02c-0.87,-1.65 -0.95,-4 -2.62,-5.05z" fill="#001c0c" id="svg_43"/>
  <path d="m236.87,77.28q-2.02,-1.16 -3.75,-0.03c-1.52,0.99 -1.69,3.22 -2.32,4.83a2.64,2.63 7.1 0 1 -2.11,1.64c-8.46,1.1 -4.27,-18.38 8.08,-16.3c6.24,1.05 9.91,7.4 8.7,13.47c-0.67,3.33 -5,4.71 -6.57,1.33q-0.6,-1.29 -0.69,-2.79a2.67,2.66 -77.1 0 0 -1.34,-2.15z" fill="#001c0c" id="svg_42"/>
  <path d="m113.96,94.18q6.27,0.94 9.72,5.14c4.16,5.07 3.54,12.53 -1.26,17.03c-1.94,1.82 -4.79,2.22 -7.09,3.43c-2.54,1.35 -3.39,4.26 -1.6,6.62c3.69,4.85 0.71,11.36 -4.81,13.06q-8.7,2.68 -13.08,-5.53q-0.52,-0.97 -1.6,-1.24q-2.91,-0.72 -6.01,-0.65a1.9,1.9 0 0 0 -1.72,1.16c-1.24,2.92 -2.64,5.9 -6.11,6.61q-5.69,1.16 -9.28,-3.27q-1.99,-2.47 -1.64,-5.6c0.21,-1.95 1.45,-3.3 2.02,-5.13q0.2,-0.66 -0.09,-1.29c-1.33,-2.92 -4.59,-4.52 -7.43,-2.54c-1.07,0.75 -2.29,1.83 -3.66,1.83q-5.06,-0.01 -8.01,-3.97c-1.29,-1.73 -1.1,-3.91 -1.93,-5.84q-1.89,-4.38 -7.33,-3.65q-0.51,0.07 -0.8,0.49c-1.75,2.53 -3.76,5.07 -7.14,5.25c-7.95,0.43 -12.94,-6.71 -10.01,-14.1q2.34,-5.87 9.25,-7.12c3.16,-0.57 6.22,1.1 8.78,2.84c3.95,2.68 5.03,-2.01 6.46,-4.24c2.39,-3.73 7.62,-5.76 11.76,-4.87q7.81,1.68 9.38,8.88q0.52,2.37 2.79,3.12q3.93,1.3 7.14,-0.6c1.45,-0.87 2.17,-2.4 1.66,-4.09c-2.14,-6.99 2.68,-13.5 9.06,-16.19c8.1,-3.42 17.33,0.68 20.83,8.51c0.77,1.74 0.83,3.47 1.11,5.31q0.09,0.55 0.64,0.64zm-17.69,26.01a5.62,5.62 0 0 0 -5.62,-5.62a5.62,5.62 0 0 0 -5.62,5.62a5.62,5.62 0 0 0 5.62,5.62a5.62,5.62 0 0 0 5.62,-5.62z" fill="#ffffff" id="svg_41"/>
  <path d="m216.22,87.24c0.13,9.22 -2.22,16.24 -12.31,17.1q-0.46,0.04 -0.51,0.51c-0.52,5.35 0.07,11.61 5.23,13.87q5.96,2.61 8.84,-3.16q1.37,-2.77 4.28,-1.73q0.25,0.09 0.48,0.25q2.64,1.83 1.9,4.73c-0.77,3.01 -2.57,4.01 -5.02,5.47a1.12,1.1 74.7 0 0 -0.53,0.95q0.07,9.67 0.13,19.82q0.02,4.75 -1.51,7.95c-4.34,9.06 -14.1,14.53 -23.54,10.98q-12.76,-4.8 -12.78,-19.3q-0.01,-9.06 0.12,-18.99q0.01,-0.88 -0.75,-1.34c-3.17,-1.92 -5.81,-5.12 -4.12,-8.97c0.79,-1.79 2.78,-2 4.44,-1.62a2.03,2.02 -6.9 0 1 1.37,1.07c1.37,2.76 2.86,4.76 6.4,4.4c7.86,-0.78 8.59,-7.77 7.83,-14.29q-0.06,-0.5 -0.56,-0.57c-8.27,-1.24 -11.65,-8.37 -10.93,-16.27q-0.15,-4.9 3.31,-7.07q2.02,-1.28 6.85,-1.52q7.61,-0.39 13.48,0.07q6.95,0.54 7.9,7.66zm-25.1,51.52q-3.85,4.93 -2.38,10.15c1.4,4.96 6.09,8.4 11.02,8.26q9.18,-0.27 11.5,-9.48q0.66,-2.59 0.2,-11.82l0.02,-5.63a0.58,0.58 0 0 0 -0.66,-0.58q-11.37,1.6 -19.7,9.1z" fill="#001c0c" id="svg_40"/>
  <path d="m157.11,89.09q-4.6,1.53 -6.84,-2.36c-1.59,-8.97 9.37,-7.88 8.72,-1.5q-0.2,1.99 -1.88,3.86z" fill="#371f17" id="svg_39"/>
  <path d="m256.09,86.69q-2.32,3.95 -6.05,2.3q-2.42,-1.38 -1.98,-4.52c0.91,-6.53 10.58,-4.5 8.03,2.22z" fill="#371f17" id="svg_38"/>
  <path d="m150.27,86.73q2.24,3.89 6.84,2.36q6.37,7.61 -0.71,13.55q-2.02,1.69 -3.96,1.95c-3.58,0.47 -6.05,-0.34 -8.14,-3.25q-5.62,-7.8 2.01,-13.32q0.75,-0.54 3.96,-1.29z" fill="#fe8f83" id="svg_37"/>
  <path d="m256.09,86.69q4.89,0.98 6.8,5.23c2.27,5.04 0.52,10.39 -4.8,12.05c-4.23,1.32 -8.38,0.62 -10.61,-3.55q-3.83,-7.16 2.56,-11.43q3.73,1.65 6.05,-2.3z" fill="#fe8f83" id="svg_36"/>
  <path d="m184.68,88.1c-0.72,7.9 2.66,15.03 10.93,16.27q0.5,0.07 0.56,0.57c0.76,6.52 0.03,13.51 -7.83,14.29c-3.54,0.36 -5.03,-1.64 -6.4,-4.4a2.03,2.02 -6.9 0 0 -1.37,-1.07c-1.66,-0.38 -3.65,-0.17 -4.44,1.62c-1.69,3.85 0.95,7.05 4.12,8.97q0.76,0.46 0.75,1.34q-0.13,9.93 -0.12,18.99q0.02,14.5 12.78,19.3c9.44,3.55 19.2,-1.92 23.54,-10.98q1.53,-3.2 1.51,-7.95q-0.06,-10.15 -0.13,-19.82a1.12,1.1 74.7 0 1 0.53,-0.95c2.45,-1.46 4.25,-2.46 5.02,-5.47q0.74,-2.9 -1.9,-4.73q-0.23,-0.16 -0.48,-0.25q-2.91,-1.04 -4.28,1.73q-2.88,5.77 -8.84,3.16c-5.16,-2.26 -5.75,-8.52 -5.23,-13.87q0.05,-0.47 0.51,-0.51c10.09,-0.86 12.44,-7.88 12.31,-17.1q23.35,13.13 26.51,38.62q3.18,25.7 -14.7,43.49q-3.61,3.58 -10.78,7.02c-14.35,6.89 -30.97,4.09 -42.97,-6.06c-11.22,-9.49 -16.75,-24.67 -15.83,-39.67q0.97,-15.96 10.72,-29.05q6.32,-8.48 15.51,-13.49z" fill="#ffffff" id="svg_35"/>
  <circle cx="90.65" cy="120.19" fill="#001c0c" id="svg_34" r="5.62"/>
  <path d="m344.02,143.12q-0.64,1.73 -0.76,3.85c-0.21,3.47 -4.7,5.34 -5.91,1.44q-0.74,-2.39 -1.08,-5.32a1.6,1.59 15.3 0 0 -0.62,-1.08q-2.38,-1.79 -5.46,-2.37c-1.73,-0.33 -3.45,-1.7 -3.09,-3.69q0.34,-1.86 1.97,-2.42q1.85,-0.65 3.78,-1.15c3.61,-0.93 3.91,-4.97 4.18,-7.96q0.13,-1.41 1.17,-2.25c2.91,-2.35 5.42,1.14 5.28,3.82c-0.14,2.87 1.35,5.9 4.47,6.42c2.48,0.41 6.33,2.02 4.7,5.35q-0.66,1.34 -2.18,1.71q-1.73,0.41 -3.41,1.07c-1.26,0.5 -2.54,1.23 -3.04,2.58z" fill="#001c0c" id="svg_33"/>
  <path d="m71.58,157.09q-5.91,-0.09 -10.24,-3.38c-2.08,-1.58 -4.85,-3.84 -6.21,-6.33c-0.95,-1.75 -1.68,-3.53 -3.04,-5.01q-0.79,-0.86 -1.55,-1.71q-0.33,-0.37 -0.8,-0.53c-6.12,-2.13 -8.11,-5.08 -12.17,-8.91q0.12,-2.12 -0.39,-3.63q2.04,-0.35 4.07,-1.79a0.62,0.62 0 0 1 0.9,0.22q4.6,8.62 14.56,9.75q0.52,0.06 0.71,0.55c0.34,0.91 0.36,2.04 0.73,2.93q4.69,11.27 16.6,12.59q1.52,0.17 0,0.34q-3.54,0.39 -3.17,4.91z" fill="#f18f2d" id="svg_32"/>
  <path d="m37.18,127.59q0.51,1.51 0.39,3.63c-0.32,4.8 -0.02,9.65 -0.05,14.42q-0.16,19.58 -0.08,39.33c0.01,4.27 1.19,8.41 4.76,10.85c2.69,1.84 7,1.89 10.36,1.9q10.56,0.03 21.72,-0.16q-4.02,9.84 -12.82,12.21q-9.77,0.08 -19.31,-0.03c-6.38,-0.07 -12.25,-4.44 -12.24,-11.01q0.01,-35.11 0.09,-70.7q0.01,-0.4 0.4,-0.4l6.78,-0.04z" fill="#ffffff" id="svg_31"/>
  <path d="m211.46,135.87c-4.38,0.31 -8.51,3.21 -11.97,5.63q-0.88,0.62 -1.86,0.18l-6.51,-2.92q8.33,-7.5 19.7,-9.1a0.58,0.58 0 0 1 0.66,0.58l-0.02,5.63z" fill="#a34f48" id="svg_30"/>
  <path d="m37.57,131.22c4.06,3.83 6.05,6.78 12.17,8.91q0.47,0.16 0.8,0.53q0.76,0.85 1.55,1.71c1.36,1.48 2.09,3.26 3.04,5.01c1.36,2.49 4.13,4.75 6.21,6.33q4.33,3.29 10.24,3.38c-0.03,1.88 -0.48,5.2 0.72,6.59c1.46,1.7 4.34,1.43 5.73,-0.21a1.36,1.32 -24.6 0 0 0.33,-0.85l0.2,-5.55q2.63,0.14 5,-0.83a0.55,0.54 76.9 0 1 0.75,0.47q0.79,11.7 0.55,23.92q-0.2,10.3 -9.12,16.03q-0.7,0.45 -0.24,1.03q-1.02,0.06 -1.22,-0.13q-11.16,0.19 -21.72,0.16c-3.36,-0.01 -7.67,-0.06 -10.36,-1.9c-3.57,-2.44 -4.75,-6.58 -4.76,-10.85q-0.08,-19.75 0.08,-39.33c0.03,-4.77 -0.27,-9.62 0.05,-14.42zm15.32,14.72a3.68,3.68 0 0 0 -3.68,-3.68l-0.14,0a3.68,3.68 0 0 0 -3.68,3.68l0,39.14a3.68,3.68 0 0 0 3.68,3.68l0.14,0a3.68,3.68 0 0 0 3.68,-3.68l0,-39.14zm25.69,31.11a3.34,3.34 0 0 0 -3.4,-3.28l-0.4,0a3.34,3.34 0 0 0 -3.28,3.4l0.16,8.86a3.34,3.34 0 0 0 3.4,3.28l0.4,0a3.34,3.34 0 0 0 3.28,-3.4l-0.16,-8.86z" fill="#ffc858" id="svg_29"/>
  <path d="m211.46,135.87q0.46,9.23 -0.2,11.82q-2.32,9.21 -11.5,9.48c-4.93,0.14 -9.62,-3.3 -11.02,-8.26q-1.47,-5.22 2.38,-10.15l6.51,2.92q0.98,0.44 1.86,-0.18c3.46,-2.42 7.59,-5.32 11.97,-5.63z" fill="#fe8f83" id="svg_28"/>
  <rect fill="#001c0c" height="46.5" id="svg_27" rx="3.68" width="7.5" x="45.39" y="142.26"/>
  <path d="m95.22,185.59q-1.54,0.6 -2.78,1.83q-0.82,0.81 -1.47,2.82c-2.14,6.62 -9,8.53 -15.47,7.45q-0.46,-0.58 0.24,-1.03q8.92,-5.73 9.12,-16.03q0.24,-12.22 -0.55,-23.92a0.55,0.54 76.9 0 0 -0.75,-0.47q-2.37,0.97 -5,0.83q-0.17,-2.66 -2.03,-4.51q-0.62,-0.62 0.25,-0.65c4.92,-0.21 9.01,-1.55 12.52,-5.13q0.5,-0.51 1.02,-0.03q1.88,1.72 4.18,2.69q0.56,0.24 0.56,0.85l0.16,35.3z" fill="#f18f2d" id="svg_26"/>
  <path d="m125.11,190.63q-1.57,-3 -3.3,-4.65q-1.5,-1.42 -4.38,-1.55q-5.16,-0.23 -10.38,0.05l-0.11,-24.4q0,-0.65 0.64,-0.74q4.37,-0.63 8.45,0.97q9.48,3.71 11.49,14.67q1.52,8.23 -2.41,15.65z" fill="#d28c64" id="svg_25"/>
  <path d="m297.8,174.39q5.21,4.63 10.38,9.72q10.92,10.75 17.83,24.38q9.32,18.4 5.62,39.8q0.36,-12.24 -0.83,-17.07q-0.83,-3.35 -5.34,-4.02q-0.36,-1.06 -1.05,-4.22q-1.59,-7.23 -6.09,-15.67c-6.55,-12.29 -15.53,-21.21 -26.11,-30.42c-1.21,-1.06 -1.18,-2.87 0.01,-3.97q2.19,-1.99 5.58,1.47z" fill="#ffffff" id="svg_24"/>
  <rect fill="#001c0c" height="15.54" id="svg_23" rx="3.34" transform="rotate(-1 75.1163 181.538)" width="7.08" x="71.58" y="173.77"/>
  <path d="m125.11,190.63q-3.02,5.84 -9.43,6.97q-3.99,0.71 -7.97,0.23a0.91,0.9 -86.1 0 1 -0.79,-0.91l0.13,-12.44q5.22,-0.28 10.38,-0.05q2.88,0.13 4.38,1.55q1.73,1.65 3.3,4.65z" fill="#a34f48" id="svg_22"/>
  <path d="m95.22,185.59q0.12,5.34 0.08,10.39q-0.1,13.73 -13.87,13.85q-10.11,0.09 -19.97,-0.06q8.8,-2.37 12.82,-12.21q0.2,0.19 1.22,0.13c6.47,1.08 13.33,-0.83 15.47,-7.45q0.65,-2.01 1.47,-2.82q1.24,-1.23 2.78,-1.83z" fill="#fec6ae" id="svg_21"/>
  <path d="m104.13,211.28q0.74,-1.03 1.63,-1.93q0.34,-0.34 0.83,-0.36l7.22,-0.26a0.62,0.62 0 0 1 0.6,0.84q-1.5,3.85 -2.92,8.03q-5.57,16.39 -5.37,34.18a0.66,0.66 0 0 1 -0.71,0.67q-27.37,-1.82 -42.83,-22.08q-2.86,-3.75 -4.32,-7.74a0.46,0.46 0 0 1 0.43,-0.61q8.89,0.01 17.94,0.3q9.73,0.31 14.64,-1.27q7.58,-2.42 12.86,-9.77z" fill="#a34f48" id="svg_20"/>
  <path d="m127.6,280.46l-4.24,0.44q-0.53,0.05 -0.71,-0.45c-3.88,-10.71 -4.71,-21.14 -4.26,-32.96q0.77,-20.18 9.67,-38.57q2.33,-0.27 3.12,0.36a2.4,2.4 0 0 1 0.71,2.82q-10.14,23.71 -8.16,49.4q0.75,9.66 3.87,18.96z" fill="#ffffff" id="svg_19"/>
  <path d="m237.75,230.56q-5.26,3.61 -7.76,6.62q-9.84,11.86 -8.42,26.06q0.59,5.93 4.83,13.27q-0.12,3.23 -1.29,6.07c-1.2,2.95 -2.09,5.79 -3.77,8.49q-2.91,4.67 -7.06,7.92q-16.41,12.89 -36.18,7.07q-3.83,-1.13 -7.91,-3.65q-1.49,-0.92 -3.24,-1.98q-4.5,-5.65 -9.74,-9.91q-12.89,-19.98 -7.58,-40.97c4.62,-18.28 17.75,-32.15 36.01,-37.73q6.57,-2.01 13.91,-1.73q24.12,0.94 38.2,20.47z" fill="#ffffff" id="svg_18"/>
  <path d="m261.04,216.05l3.15,7.29q0.2,0.47 -0.31,0.49l-6.22,0.29q-4.52,-6.76 3.38,-8.07z" fill="#a34f48" id="svg_17"/>
  <path d="m325.46,227.2q4.51,0.67 5.34,4.02q1.19,4.83 0.83,17.07q-0.92,10.2 -6.34,18.47q-13.25,20.23 -37.75,22.69c-1.42,0.15 -2.47,0.32 -3.67,-0.49q-14.6,-9.86 -30.9,-7.84q-1.95,0.24 -3.65,-0.51c-10.52,-4.6 -17.67,-16.17 -14.15,-27.25q2.42,-7.66 9.49,-12.43q0.52,0.64 2.64,0.51q1.94,3.86 2.33,6.04c0.79,4.32 -0.08,10.11 0.82,13.99q1.55,6.7 7.84,10.38c11.68,6.84 28.65,4.94 39.75,-0.83q12.26,-6.36 19.2,-18.63q4.78,-8.44 4.91,-19.63q0.05,-4.1 3.31,-5.56z" fill="#a34f48" id="svg_16"/>
  <path d="m295.62,228.78q-3.6,7.76 -11.39,10.37q-6.7,2.25 -14.55,2.25q-11.44,0 -22.38,0.04q-2.12,0.13 -2.64,-0.51q7.89,-4.56 15.15,-4.48q12.44,0.12 15.75,-0.18c6.82,-0.62 12.82,-3.12 20.06,-7.49z" fill="#ffffff" id="svg_15"/>
  <path d="m61.48,293.02c-0.2,0.69 -0.73,1.24 -0.85,1.9q-0.4,2.05 -1.05,4.38c-0.67,2.41 -3.06,3.07 -5.02,1.36a1.41,1.4 -72 0 1 -0.47,-0.93q-0.06,-0.71 -0.51,-1.26q-0.35,-0.44 -0.31,-1q0.22,-2.69 -1.63,-4.5c-1.43,-1.4 -3.42,-1.74 -5.34,-2.2c-2.31,-0.54 -3.67,-2.6 -2.25,-4.86q0.15,-0.25 0.42,-0.37q2.38,-1.13 4.87,-1.93c2.95,-0.94 4.26,-3.96 4.17,-6.85c-0.06,-2.27 2.05,-4.62 4.45,-3.55c2.54,1.14 2.23,4.91 2.53,7.25q0.07,0.54 0.45,0.94c0.81,0.85 1.61,1.76 2.78,2.11q2.42,0.72 4.59,1.64q1.88,0.8 1.65,3.11a2.4,2.4 0 0 1 -1.63,2.03l-6.22,2.07q-0.48,0.17 -0.63,0.66z" fill="#001c0c" id="svg_14"/>
  <path d="m226.4,276.51q3.28,5.75 8.17,9.91a0.64,0.64 0 0 1 -0.05,1.01q-15.25,10.48 -23.18,26.68q-6.36,2.42 -8.52,2.92q-14.07,3.21 -27.72,-3.01l-8.15,-13.59q1.75,1.06 3.24,1.98q4.08,2.52 7.91,3.65q19.77,5.82 36.18,-7.07q4.15,-3.25 7.06,-7.92c1.68,-2.7 2.57,-5.54 3.77,-8.49q1.17,-2.84 1.29,-6.07z" fill="#fec6ae" id="svg_13"/>
  <path d="m166.11,327.35q-1.56,10.08 -5.06,18.07l-8.33,0.21q1.59,-6.44 -1.48,-12.06c-2.88,-5.27 -7.83,-8.78 -13.84,-9.64q-13.24,-1.91 -20.76,9.38q-3.73,5.58 -2.33,12.4l-13.81,-0.06a1.87,1.87 0 0 1 -1.61,-0.95c-6.44,-11.55 -6.26,-25.64 1.15,-36.78c12.46,-18.75 36.83,-19.3 52.56,-4.73q10.82,10.02 13.51,24.16zm-19.54,-16.47a5.34,5.34 0 0 0 -5.34,-5.34a5.34,5.34 0 0 0 -5.34,5.34a5.34,5.34 0 0 0 5.34,5.34a5.34,5.34 0 0 0 5.34,-5.34zm-17.15,0.12a5.3,5.3 0 0 0 -5.3,-5.3a5.3,5.3 0 0 0 -5.3,5.3a5.3,5.3 0 0 0 5.3,5.3a5.3,5.3 0 0 0 5.3,-5.3zm-14.9,11.02a5.39,5.39 0 0 0 -5.39,-5.39a5.39,5.39 0 0 0 -5.39,5.39a5.39,5.39 0 0 0 5.39,5.39a5.39,5.39 0 0 0 5.39,-5.39z" fill="#d28c64" id="svg_12"/>
  <path d="m270.79,345.56q1.07,-11.88 -8.56,-18.43q-7.41,-5.03 -14.91,-3.43q-17.56,3.75 -15.12,21.93l-12.63,0.13a0.65,0.64 86.6 0 1 -0.65,-0.58q-2.4,-23.57 13.6,-40.46c9.28,-9.79 23.67,-14.7 36.67,-9.64q15.55,6.06 20.11,21.57q4.42,15.08 -3.82,28.66a0.72,0.72 0 0 1 -0.61,0.34l-14.08,-0.09zm-11.93,-29.09a5.5,5.16 94.7 0 0 5.59,-5.06a5.5,5.16 94.7 0 0 -4.69,-5.9a5.5,5.16 94.7 0 0 -5.59,5.06a5.5,5.16 94.7 0 0 4.69,5.9zm-15.83,-0.07a5.35,5.16 78.7 0 0 4.01,-6.26a5.35,5.16 78.7 0 0 -6.11,-4.24a5.35,5.16 78.7 0 0 -4.01,6.26a5.35,5.16 78.7 0 0 6.11,4.24zm32.06,11.15a5.59,5.18 88.4 0 0 5.02,-5.73a5.59,5.18 88.4 0 0 -5.34,-5.45a5.59,5.18 88.4 0 0 -5.02,5.73a5.59,5.18 88.4 0 0 5.34,5.45z" fill="#d28c64" id="svg_11"/>
  <circle cx="141.23" cy="310.88" fill="#371f17" id="svg_10" r="5.34"/>
  <ellipse cx="259.31" cy="310.99" fill="#371f17" id="svg_9" rx="5.5" ry="5.16" transform="rotate(94.7 259.306 310.988)"/>
  <ellipse cx="241.98" cy="311.15" fill="#371f17" id="svg_8" rx="5.35" ry="5.16" transform="rotate(78.7 241.976 311.148)"/>
  <circle cx="124.12" cy="311" fill="#371f17" id="svg_7" r="5.3"/>
  <path d="m175.1,314.02q13.65,6.22 27.72,3.01q2.16,-0.5 8.52,-2.92q-3.96,9.06 -4.65,18.34a1.37,1.36 86.3 0 1 -1.08,1.23q-12.56,2.62 -24.88,-0.61a1.47,1.46 -86.5 0 1 -1.08,-1.23q-0.44,-3.44 -1.38,-7q-1.36,-5.13 -3.17,-10.82z" fill="#a34f48" id="svg_6"/>
  <ellipse cx="274.93" cy="321.96" fill="#371f17" id="svg_5" rx="5.59" ry="5.18" transform="rotate(88.4 274.926 321.958)"/>
  <circle cx="109.13" cy="322.02" fill="#371f17" id="svg_4" r="5.39"/>
  <path d="m152.72,345.63l-38.41,0.08q-1.4,-6.82 2.33,-12.4q7.52,-11.29 20.76,-9.38c6.01,0.86 10.96,4.37 13.84,9.64q3.07,5.62 1.48,12.06z" fill="#371f17" id="svg_3"/>
  <path d="m270.79,345.56l-38.59,0.07q-2.44,-18.18 15.12,-21.93q7.5,-1.6 14.91,3.43q9.63,6.55 8.56,18.43z" fill="#371f17" id="svg_2"/>
  <path d="m166.11,327.35q2.32,8.83 1.68,17.61q-0.04,0.53 -0.57,0.52l-6.17,-0.06q3.5,-7.99 5.06,-18.07z" fill="#a34f48" id="svg_1"/>
 </g>
</svg>